<?xml version="1.0" encoding="UTF-8"?>
<!-- Generated by Pixelmator Pro 3.2.1 -->
<svg width="200" height="200" viewBox="0 0 200 200" xmlns="http://www.w3.org/2000/svg" xmlns:xlink="http://www.w3.org/1999/xlink">
    <path id="Path" fill="#1d9bf0" stroke="none" d="M 164.414993 66.644913 C 164.513718 68.073059 164.513718 69.501221 164.513718 70.942535 C 164.513718 114.859909 131.080444 165.509995 69.946259 165.509995 L 69.946259 165.483673 C 51.88702 165.509995 34.202927 160.337051 19 150.583496 C 21.625959 150.899384 24.265083 151.057343 26.910786 151.063934 C 41.876781 151.077087 56.414989 146.055511 68.189034 136.808716 C 53.966728 136.538879 41.495064 127.265755 37.13821 113.727913 C 42.120293 114.688789 47.25375 114.491348 52.143696 113.155334 C 36.638027 110.022606 25.482634 96.399208 25.482634 80.577629 L 25.482634 80.156433 C 30.102743 82.729744 35.275684 84.157898 40.567093 84.315849 C 25.963072 74.555695 21.461426 55.127548 30.280439 39.93779 C 47.155025 60.70195 72.052284 73.324989 98.77916 74.661003 C 96.100548 63.11731 99.759781 51.020782 108.394516 42.905975 C 121.780991 30.322433 142.834747 30.967407 155.418289 44.34729 C 162.861786 42.879639 169.995972 40.148392 176.524689 36.278549 C 174.043518 43.972153 168.85083 50.507446 161.914078 54.660278 C 168.502014 53.883667 174.938583 52.119873 181 49.428101 C 176.537842 56.114761 170.917374 61.93924 164.414993 66.644913 Z"/>
</svg>
